<?xml version="1.0" encoding="utf-8"?>
<!-- Generator: Adobe Illustrator 18.1.0, SVG Export Plug-In . SVG Version: 6.00 Build 0)  -->
<!DOCTYPE svg PUBLIC "-//W3C//DTD SVG 1.1//EN" "http://www.w3.org/Graphics/SVG/1.1/DTD/svg11.dtd">
<svg version="1.1" id="Layer_1" xmlns="http://www.w3.org/2000/svg" xmlns:xlink="http://www.w3.org/1999/xlink" x="0px" y="0px"
	 width="30px" height="30px" viewBox="0 0 30 30" style="enable-background:new 0 0 30 30;" xml:space="preserve">
<path d="M8,24c-0.5,0-1-0.2-1.4-0.6c-0.8-0.8-0.8-2,0-2.8l14-14c0.8-0.8,2-0.8,2.8,0c0.8,0.8,0.8,2,0,2.8l-14,14
	C9,23.8,8.5,24,8,24z"/>
<path d="M22,24c-0.5,0-1-0.2-1.4-0.6l-14-14c-0.8-0.8-0.8-2,0-2.8c0.8-0.8,2-0.8,2.8,0l14,14c0.8,0.8,0.8,2,0,2.8
	C23,23.8,22.5,24,22,24z"/>
</svg>
