<?xml version="1.0" encoding="utf-8"?>
<!-- Generator: Adobe Illustrator 18.1.1, SVG Export Plug-In . SVG Version: 6.00 Build 0)  -->
<!DOCTYPE svg PUBLIC "-//W3C//DTD SVG 1.1//EN" "http://www.w3.org/Graphics/SVG/1.1/DTD/svg11.dtd">
<svg version="1.1" id="Layer_1" xmlns="http://www.w3.org/2000/svg" xmlns:xlink="http://www.w3.org/1999/xlink" x="0px" y="0px"
	 viewBox="0 0 150 30" style="enable-background:new 0 0 150 30;" xml:space="preserve">
<g>
	<path style="fill:#373839;" d="M6.8,25.9"/>
	<path style="fill:#373839;" d="M12.9,15.9c1.5,1.9,2.2,4,2.2,6.5c0,0.8-0.1,1.5-0.2,2.1c-0.2,0.6-0.4,1.2-0.6,1.6
		c-0.2,0.5-0.5,0.9-0.8,1.2c-0.3,0.4-0.6,0.7-0.9,0.9c-1.4,1.1-3.1,1.7-5.1,1.7c-1,0-1.9-0.1-2.7-0.4c-0.8-0.3-1.6-0.7-2.2-1.3
		c-0.3-0.2-0.6-0.5-0.8-0.9C1.3,27,1,26.6,0.8,26.1c-0.2-0.5-0.4-1-0.6-1.7C0.1,23.9,0,23.2,0,22.3c0-0.6,0.2-1.2,0.7-1.6
		c0.4-0.4,1-0.7,1.6-0.7c0.7,0,1.2,0.2,1.6,0.7c0.4,0.4,0.6,1,0.6,1.6c0,0.4,0,0.7,0.1,1.1c0.1,0.4,0.2,0.7,0.4,1
		c0.2,0.3,0.5,0.5,0.9,0.7c0.4,0.2,0.9,0.3,1.6,0.3c0.4,0,0.9-0.1,1.3-0.2c0.4-0.1,0.7-0.3,1-0.5c0.6-0.5,0.9-1.3,0.9-2.4
		c0-0.8-0.1-1.4-0.3-2c-0.2-0.6-0.5-1.1-0.9-1.6C9,18.3,8.5,17.8,8,17.4c-0.6-0.4-1.2-0.9-1.9-1.4c-0.7-0.4-1.3-0.9-1.9-1.4
		c-0.6-0.5-1.2-1-1.8-1.7c-0.7-0.8-1.1-1.6-1.5-2.5C0.5,9.5,0.4,8.6,0.4,7.6c0-0.2,0-0.4,0-0.8c0-0.4,0.1-0.9,0.2-1.4
		c0.1-0.5,0.3-1.1,0.6-1.6c0.3-0.6,0.6-1.1,1.1-1.7c0.4-0.5,1.1-0.9,1.9-1.4C5.1,0.2,6.2,0,7.5,0c1.4,0,2.5,0.2,3.3,0.7
		c0.8,0.5,1.4,0.9,1.9,1.4c0.5,0.6,0.8,1.2,1.1,1.8c0.2,0.6,0.4,1.2,0.5,1.8c0.1,0.5,0.1,1,0.1,1.4s-0.1,0.6-0.1,0.7
		c-0.1,0.5-0.2,0.8-0.5,1.1c-0.2,0.3-0.5,0.5-0.8,0.7c-0.3,0.2-0.8,0.2-1.4,0.1c-0.6-0.1-1-0.3-1.2-0.5c-0.3-0.3-0.4-0.5-0.5-0.8
		C9.7,8.1,9.7,7.8,9.7,7.6c0-0.2,0-0.4,0-0.4c0-0.1,0-0.2,0-0.4s0-0.4-0.1-0.6c0-0.2-0.1-0.4-0.2-0.6S9.4,5.2,9.2,5.1
		C8.9,4.7,8.4,4.5,7.5,4.5c-0.7,0-1.1,0.1-1.4,0.3C5.8,4.9,5.7,5.1,5.6,5.1C5.4,5.3,5.3,5.5,5.2,5.7C5.1,6,5,6.2,5,6.4
		C4.9,6.6,4.9,6.8,4.9,7c0,0.2,0,0.3,0,0.4v0.1v0.1c0,0.5,0.1,1,0.3,1.4C5.3,9.3,5.6,9.7,5.9,10c0.3,0.4,0.7,0.7,1.2,1.1
		c0.5,0.4,1,0.8,1.6,1.2c0.7,0.5,1.4,1,2.2,1.6C11.6,14.5,12.2,15.2,12.9,15.9z"/>
	<path style="fill:#373839;" d="M32.3,0.6c0.4,0.4,0.7,1,0.7,1.6c0,0.6-0.2,1.2-0.7,1.6c-0.4,0.4-1,0.7-1.6,0.7H27v23.2
		c0,0.6-0.3,1.1-0.8,1.5c-0.4,0.4-0.9,0.8-1.5,0.8c-0.6,0-1.1-0.3-1.5-0.8c-0.4-0.4-0.8-0.9-0.8-1.5V4.5h-3.8
		c-0.6,0-1.2-0.2-1.6-0.7c-0.4-0.4-0.7-1-0.7-1.6c0-0.6,0.2-1.2,0.7-1.6c0.4-0.4,1-0.6,1.6-0.6h12C31.4,0,31.9,0.2,32.3,0.6z"/>
	<path style="fill:#373839;" d="M47,27.3c0.1,0.6,0,1.2-0.3,1.7s-0.8,0.8-1.4,1c-0.1,0-0.2,0-0.4,0c-0.5,0-1-0.2-1.4-0.5
		c-0.4-0.3-0.7-0.8-0.8-1.3l-0.8-3.8h-4L37,28.2c-0.1,0.5-0.4,1-0.8,1.3c-0.4,0.3-0.9,0.5-1.4,0.5c-0.2,0-0.4,0-0.4,0
		c-0.6-0.1-1.1-0.4-1.4-1c-0.3-0.5-0.4-1.1-0.3-1.7l5-25.5v0V1.7c0,0,0,0,0,0c0,0,0,0,0,0v0v0c0,0,0,0,0-0.1c0,0,0,0,0,0
		c0,0,0,0,0,0v0c0.1-0.2,0.2-0.4,0.3-0.5v0c0,0,0,0,0,0c0,0,0,0,0,0v0l0,0l0,0l0,0l0,0l0,0l0.1,0c0.2-0.2,0.3-0.3,0.5-0.3h0
		c0,0,0,0,0.1,0c0.1,0,0.2-0.1,0.3-0.1c0.1,0,0.2,0,0.3-0.1h0h0.1h0.1c0.1,0,0.2,0,0.3,0.1c0.1,0,0.2,0,0.3,0.1c0,0,0,0,0.1,0h0
		c0.2,0.1,0.4,0.2,0.5,0.3c0,0,0,0,0.1,0l0,0l0,0l0,0l0,0l0,0l0,0l0,0v0c0.2,0.2,0.3,0.3,0.3,0.5v0c0,0,0,0,0,0s0,0,0,0
		C42,1.7,42,1.8,42,1.8L47,27.3z M39.8,9.8l-1.5,9h3L39.8,9.8z"/>
	<path style="fill:#373839;" d="M65.3,26.8c0.3,0.6,0.3,1.1,0.1,1.7c-0.2,0.6-0.6,1-1.2,1.2c-0.3,0.1-0.6,0.2-0.9,0.2
		c-0.4,0-0.8-0.1-1.2-0.4s-0.7-0.6-0.9-1L57,18.8h-2.2v9c0,0.6-0.2,1.2-0.7,1.6c-0.4,0.4-1,0.7-1.6,0.7c-0.6,0-1.2-0.2-1.6-0.7
		c-0.4-0.4-0.7-1-0.7-1.6V2.2c0-0.6,0.2-1.2,0.7-1.6c0.4-0.4,1-0.7,1.6-0.7h5.4c0.9,0,1.9,0.3,2.7,0.8s1.6,1.3,2.3,2.3
		c1.1,1.8,1.7,4.2,1.7,6.5c0,1.1-0.1,2.2-0.4,3.2c-0.3,1-0.7,2-1.3,2.8c-0.3,0.4-0.5,0.7-0.8,1c-0.3,0.3-0.6,0.6-0.8,0.8L65.3,26.8z
		 M57.9,14.2c0.1,0,0.3-0.1,0.5-0.2s0.5-0.4,0.7-0.8c0.3-0.5,0.6-1.1,0.7-1.7c0.2-0.6,0.2-1.3,0.2-1.9c0-0.6-0.1-1.7-0.2-2.3
		c-0.2-0.6-0.4-1.2-0.7-1.7c-0.3-0.4-0.5-0.6-0.7-0.8s-0.4-0.2-0.5-0.2h-3.2v9.8H57.9z"/>
	<path style="fill:#F16862;" d="M113.2,3.1c0.6,0.9,1,1.8,1.3,2.8c0.3,1,0.4,2.4,0.4,3.5s-0.1,2.2-0.4,3.2s-0.7,2-1.3,2.8
		c-0.7,1-1.4,1.8-2.3,2.3c-0.9,0.6-1.8,0.8-2.7,0.8H105v9c0,0.6-0.2,1.2-0.7,1.6c-0.4,0.4-1,0.7-1.6,0.7c-0.6,0-1.2-0.2-1.6-0.7
		c-0.4-0.4-0.7-1-0.7-1.6V2.3c0-0.4,0.1-0.8,0.3-1.1s0.5-0.6,0.8-0.8c0.4-0.2,0.8-0.3,1.2-0.3h5.4c0.9,0,1.9,0.3,2.7,0.8
		C111.8,1.3,112.5,2.1,113.2,3.1z M109.4,13.1c0.3-0.5,0.5-1.1,0.7-1.7c0.2-0.6,0.3-1.3,0.3-1.9s-0.1-1.6-0.3-2.3
		c-0.2-0.6-0.4-1.2-0.7-1.7c-0.3-0.4-0.5-0.6-0.7-0.8c-0.2-0.2-0.4-0.2-0.5-0.2H105v9.7h3.1c0.1,0,0.3-0.1,0.5-0.2
		C108.9,13.8,109.1,13.5,109.4,13.1z"/>
	<path style="fill:#F16862;" d="M97.5,27.3c0.1,0.6,0,1.2-0.3,1.7s-0.8,0.8-1.4,1c-0.1,0-0.2,0-0.4,0c-0.5,0-1-0.2-1.4-0.5
		c-0.4-0.3-0.7-0.8-0.8-1.3l-0.8-3.8h-4l-0.8,3.8c-0.1,0.5-0.4,1-0.8,1.3c-0.4,0.3-0.9,0.5-1.4,0.5c-0.2,0-0.4,0-0.4,0
		c-0.6-0.1-1.1-0.4-1.4-1c-0.3-0.5-0.4-1.1-0.3-1.7l5-25.5v0V1.7c0,0,0,0,0,0c0,0,0,0,0,0v0v0c0,0,0,0,0-0.1c0,0,0,0,0,0
		c0,0,0,0,0,0v0c0.1-0.2,0.2-0.4,0.3-0.5v0c0,0,0,0,0,0c0,0,0,0,0,0v0l0,0l0,0l0,0l0,0l0,0l0.1,0c0.2-0.2,0.3-0.3,0.5-0.3h0
		c0,0,0,0,0.1,0c0.1,0,0.2-0.1,0.3-0.1c0.1,0,0.2,0,0.3-0.1h0h0.1h0.1c0.1,0,0.2,0,0.3,0.1c0.1,0,0.2,0,0.3,0.1c0,0,0,0,0.1,0h0
		c0.2,0.1,0.4,0.2,0.5,0.3c0,0,0,0,0.1,0l0,0l0,0l0,0l0,0l0,0l0,0l0,0v0c0.2,0.2,0.3,0.3,0.3,0.5v0c0,0,0,0,0,0s0,0,0,0
		c0,0.2,0.1,0.3,0.1,0.3L97.5,27.3z M90.2,9.8l-1.5,9h3L90.2,9.8z"/>
	<path style="fill:#373839;" d="M131.6,27.7c0.3,0,0.6,0.1,0.8,0.3c0.2,0.2,0.3,0.5,0.3,0.8c0,0.3-0.1,0.6-0.3,0.8
		c-0.2,0.2-0.5,0.3-0.8,0.3c-0.3,0-0.6-0.1-0.8-0.3c-0.2-0.2-0.3-0.5-0.3-0.8c0-0.3,0.1-0.6,0.3-0.8C131,27.8,131.3,27.7,131.6,27.7
		z"/>
	<path style="fill:#373839;" d="M141.3,23.2c0.3,0.4,0.5,0.8,0.6,1.2c0.1,0.5,0.4,1,0.4,1.5c0,0.5-0.2,1-0.3,1.5
		c-0.1,0.5-0.3,0.9-0.6,1.2c-0.3,0.4-0.6,0.8-1,1c-0.4,0.2-0.8,0.3-1.2,0.3h-2.4h0c-0.3,0-0.5-0.1-0.7-0.3c-0.2-0.2-0.4-0.4-0.4-0.7
		V17.5c0-0.3,0.2-0.4,0.4-0.6c0.2-0.2,0.4-0.3,0.7-0.3h0h2.1c0.4,0,0.8,0.1,1.1,0.3c0.4,0.2,0.7,0.5,0.9,0.9
		c0.2,0.3,0.4,0.7,0.5,1.1c0.1,0.4,0.3,0.8,0.3,1.2c0,0.4-0.1,0.9-0.2,1.3c-0.1,0.4-0.3,0.8-0.5,1.1C141,22.8,141.1,22.9,141.3,23.2
		z M137.6,21.8h1.1c0,0,0.1,0,0.2-0.1c0.1-0.1,0.1-0.1,0.2-0.3c0.1-0.2,0.2-0.3,0.3-0.6c0.1-0.2,0.1-0.5,0.1-0.7
		c0-0.2,0-0.5-0.1-0.7c-0.1-0.2-0.1-0.4-0.3-0.6c-0.1-0.1-0.2-0.2-0.2-0.3c-0.1-0.1-0.1-0.1-0.2-0.1h-1.1V21.8z M139.1,27.9
		c0.1,0,0.2,0,0.3-0.1c0.1-0.1,0.2-0.2,0.3-0.4c0.1-0.2,0.2-0.4,0.3-0.6c0.1-0.2,0.1-0.6,0.1-1c0-0.3,0-0.6-0.1-0.8
		c-0.1-0.2-0.2-0.4-0.3-0.6c-0.1-0.2-0.2-0.3-0.3-0.4c-0.1-0.1-0.2-0.1-0.3-0.1h-1.4l0.1,4.1H139.1z"/>
	<path style="fill:#373839;" d="M150,26.9c0,0.2,0,0.3,0,0.6c-0.1,0.2-0.1,0.5-0.3,0.8c-0.1,0.3-0.3,0.5-0.5,0.8
		c-0.2,0.2-0.5,0.4-0.9,0.6c-0.4,0.2-0.9,0.3-1.5,0.3c-0.6,0-1.1-0.1-1.4-0.3c-0.4-0.2-0.6-0.4-0.8-0.6c-0.2-0.2-0.4-0.5-0.5-0.8
		c-0.1-0.3-0.2-0.5-0.3-0.8c-0.1-0.3-0.1-0.5-0.1-0.7c0-0.2,0-0.3,0-0.4v-6.5c0-0.7,0.1-1.2,0.3-1.6c0.2-0.4,0.5-0.7,0.7-1
		c0.6-0.5,1.3-0.8,2.1-0.8s1.5,0.3,2.1,0.8c0.2,0.2,0.5,0.5,0.7,1c0.2,0.4,0.3,1,0.3,1.7c0,0.3-0.1,0.5-0.3,0.7
		c-0.2,0.2-0.4,0.3-0.7,0.3c-0.3,0-0.5-0.1-0.7-0.3c-0.2-0.2-0.3-0.4-0.3-0.7c0-0.3,0-0.5-0.1-0.7c-0.1-0.2-0.2-0.3-0.3-0.4
		c-0.1-0.1-0.2-0.2-0.4-0.2c-0.1,0-0.3-0.1-0.4-0.1c-0.1,0-0.2,0-0.3,0c-0.1,0-0.2,0.1-0.4,0.2s-0.2,0.2-0.3,0.4
		c-0.1,0.2-0.3,0.4-0.3,0.7c0,0,0,6.9,0,7.1c0,0.1,0.4,0.7,0.5,0.7c0,0,0.1,0.1,0.2,0.2c0.1,0.1,0.3,0.1,0.6,0.1
		c0.3,0,0.5,0,0.6-0.1c0.1-0.1,0.2-0.1,0.2-0.2c0.1-0.1,0.1-0.2,0.2-0.3c0-0.1,0.1-0.2,0.1-0.3c0-0.1,0-0.2,0-0.3c0-0.1,0-0.2,0-0.2
		v0l-0.1-1.6h-0.7c-0.3,0-0.5-0.2-0.7-0.4c-0.2-0.2-0.3-0.4-0.3-0.7c0-0.3,0.1-0.5,0.3-0.7c0.2-0.2,0.4-0.2,0.7-0.2h2.7v3.7
		C150,26.7,150,26.7,150,26.9z"/>
	<path style="fill:#F16862;" d="M131.2,3.1c0.6,0.9,1,1.8,1.3,2.8c0.3,1,0.4,2.4,0.4,3.5s-0.1,2.2-0.4,3.2s-0.7,2-1.3,2.8
		c-0.7,1-1.4,1.8-2.3,2.3c-0.9,0.6-1.8,0.8-2.7,0.8H123v9c0,0.6-0.2,1.2-0.7,1.6c-0.4,0.4-1,0.7-1.6,0.7c-0.6,0-1.2-0.2-1.6-0.7
		c-0.4-0.4-0.7-1-0.7-1.6V2.3c0-0.4,0.1-0.8,0.3-1.1s0.5-0.6,0.8-0.8c0.4-0.2,0.8-0.3,1.2-0.3h5.4c0.9,0,1.9,0.3,2.7,0.8
		C129.8,1.3,130.5,2.1,131.2,3.1z M127.4,13.1c0.3-0.5,0.5-1.1,0.7-1.7c0.2-0.6,0.3-1.3,0.3-1.9s-0.1-1.6-0.3-2.3
		c-0.2-0.6-0.4-1.2-0.7-1.7c-0.3-0.4-0.5-0.6-0.7-0.8c-0.2-0.2-0.4-0.2-0.5-0.2H123v9.7h3.1c0.1,0,0.3-0.1,0.5-0.2
		C126.9,13.8,127.1,13.5,127.4,13.1z"/>
	<path style="fill:#373839;" d="M83.3,0.6c0.4,0.4,0.7,1,0.7,1.6c0,0.6-0.2,1.2-0.7,1.6s-1,0.7-1.6,0.7H78v23.2
		c0,0.6-0.3,1.1-0.8,1.5c-0.4,0.4-0.9,0.8-1.5,0.8c-0.6,0-1.1-0.3-1.5-0.8c-0.4-0.4-0.8-0.9-0.8-1.5V4.5h-3.8
		c-0.6,0-1.2-0.2-1.6-0.7c-0.4-0.4-0.7-1-0.7-1.6c0-0.6,0.2-1.2,0.7-1.6c0.4-0.4,1-0.6,1.6-0.6h12C82.4,0,82.9,0.2,83.3,0.6z"/>
</g>
</svg>
