<?xml version="1.0" encoding="utf-8"?>
<!-- Generator: Adobe Illustrator 18.1.0, SVG Export Plug-In . SVG Version: 6.00 Build 0)  -->
<!DOCTYPE svg PUBLIC "-//W3C//DTD SVG 1.0//EN" "http://www.w3.org/TR/2001/REC-SVG-20010904/DTD/svg10.dtd">
<svg version="1.0" id="Layer_1" xmlns="http://www.w3.org/2000/svg" xmlns:xlink="http://www.w3.org/1999/xlink" x="0px" y="0px"
	 width="100px" height="110px" viewBox="0 0 100 110" style="enable-background:new 0 0 100 110;" xml:space="preserve">
<path style="fill:#CDCCCC;" d="M81,79.9c0,0-10-3-12-3c2-1,3.3-5.9,3-8c-1-8-8-9-8-9s-2,0-3,1c1,2,1,4,1,6c0,3-1,6-3,8
	c1-2,1-3.8,1-6c0-6.1-4.2-11-10-11c-5.8,0-10,4.9-10,11c0,2.2,0,4,1,6c-2-2-3-5-3-8c0-2,0-4,1-6c-1-1-3-1-3-1s-7,1.1-8,9
	c-0.3,2.1,1,7,3,8c-2,0-12,3-12,3H81z"/>
<path style="fill:#ff6860;" d="M60,42L52,3h0c-0.1-1-0.9-2-2-2s-1.9,1-2,2h0l-8,39l6-4.9L41,57l4-7l2-13l3,16l3-16l2,13l4,7l-5-20
	L60,42z M51.5,25.9h-3c-0.3,0-0.5-0.2-0.4-0.5l1.5-6c0.2-0.9,0.6-0.9,0.8,0l1.5,6C51.9,25.7,51.8,25.9,51.5,25.9z"/>
<path style="fill:#373839;" d="M4.5,107.2"/>
<path style="fill:#373839;" d="M8.6,100.5c1,1.2,1.5,2.7,1.5,4.3c0,0.5-0.1,1-0.2,1.4c-0.1,0.4-0.2,0.8-0.4,1.1
	c-0.2,0.3-0.3,0.6-0.5,0.8c-0.2,0.2-0.4,0.4-0.6,0.6c-0.9,0.8-2.1,1.1-3.4,1.1c-0.7,0-1.3-0.1-1.8-0.3c-0.6-0.2-1.1-0.5-1.5-0.9
	c-0.2-0.1-0.4-0.3-0.6-0.6c-0.2-0.2-0.4-0.5-0.5-0.8c-0.2-0.3-0.3-0.7-0.4-1.1c-0.1-0.4-0.2-0.9-0.2-1.4c0-0.4,0.1-0.8,0.4-1.1
	c0.3-0.3,0.6-0.4,1.1-0.4c0.4,0,0.8,0.1,1.1,0.4c0.3,0.3,0.4,0.6,0.4,1.1c0,0.2,0,0.5,0.1,0.7c0,0.2,0.1,0.5,0.3,0.7
	c0.1,0.2,0.3,0.4,0.6,0.5c0.3,0.1,0.6,0.2,1,0.2c0.3,0,0.6,0,0.8-0.1c0.3-0.1,0.5-0.2,0.7-0.3c0.4-0.4,0.6-0.9,0.6-1.6
	c0-0.5-0.1-1-0.2-1.4c-0.1-0.4-0.3-0.7-0.6-1.1c-0.3-0.3-0.6-0.6-1-0.9c-0.4-0.3-0.8-0.6-1.3-0.9c-0.4-0.3-0.9-0.6-1.3-0.9
	c-0.4-0.3-0.8-0.7-1.2-1.1c-0.4-0.5-0.8-1.1-1-1.7c-0.2-0.6-0.3-1.2-0.3-1.9c0-0.1,0-0.3,0-0.5c0-0.3,0-0.6,0.1-0.9
	c0.1-0.3,0.2-0.7,0.4-1.1c0.2-0.4,0.4-0.8,0.8-1.1c0.3-0.3,0.7-0.6,1.3-0.9c0.6-0.3,1.3-0.4,2.2-0.4c0.9,0,1.6,0.2,2.2,0.5
	c0.5,0.3,1,0.6,1.2,0.9c0.3,0.4,0.6,0.8,0.7,1.2c0.2,0.4,0.3,0.8,0.3,1.2c0,0.4,0.1,0.7,0,0.9s0,0.4,0,0.5c-0.1,0.3-0.2,0.6-0.3,0.8
	c-0.1,0.2-0.3,0.3-0.5,0.5c-0.2,0.1-0.5,0.1-0.9,0.1c-0.4-0.1-0.6-0.2-0.8-0.4c-0.2-0.2-0.3-0.4-0.4-0.5c-0.1-0.2-0.1-0.4-0.1-0.5
	c0-0.1,0-0.2,0-0.3c0-0.1,0-0.2,0-0.3s0-0.2,0-0.4c0-0.1-0.1-0.3-0.1-0.4s-0.1-0.2-0.2-0.4C6,93.1,5.6,92.9,5,92.9
	c-0.4,0-0.8,0.1-0.9,0.2c-0.2,0.1-0.3,0.2-0.3,0.2c-0.1,0.1-0.2,0.2-0.3,0.4c-0.1,0.2-0.1,0.3-0.1,0.5c0,0.1-0.1,0.3-0.1,0.4
	c0,0.1,0,0.2,0,0.2v0v0.1c0,0.3,0.1,0.6,0.2,0.9c0.1,0.3,0.3,0.5,0.5,0.8c0.2,0.2,0.5,0.5,0.8,0.7c0.3,0.2,0.7,0.5,1.1,0.8
	c0.5,0.3,0.9,0.7,1.4,1.1C7.7,99.6,8.2,100,8.6,100.5z"/>
<path style="fill:#373839;" d="M21.6,90.4c0.3,0.3,0.4,0.6,0.4,1.1c0,0.4-0.1,0.8-0.4,1.1s-0.6,0.4-1.1,0.4H18v15.5
	c0,0.4-0.2,0.7-0.5,1c-0.3,0.3-0.6,0.5-1,0.5c-0.4,0-0.7-0.2-1-0.5c-0.3-0.3-0.5-0.6-0.5-1V92.9h-2.5c-0.4,0-0.8-0.1-1.1-0.4
	c-0.3-0.3-0.4-0.6-0.4-1.1c0-0.4,0.1-0.8,0.4-1.1c0.3-0.3,0.6-0.4,1.1-0.4h8C20.9,89.9,21.3,90.1,21.6,90.4z"/>
<path style="fill:#373839;" d="M31.3,108.1c0.1,0.4,0,0.8-0.2,1.1s-0.5,0.6-1,0.6c-0.1,0-0.2,0-0.3,0c-0.3,0-0.7-0.1-0.9-0.3
	c-0.3-0.2-0.5-0.5-0.5-0.9l-0.5-2.5h-2.7l-0.5,2.5c-0.1,0.4-0.2,0.6-0.5,0.9c-0.3,0.2-0.6,0.3-0.9,0.3c-0.1,0-0.2,0-0.3,0
	c-0.4-0.1-0.7-0.3-1-0.6c-0.2-0.3-0.3-0.7-0.2-1.1l3.3-17v0v0c0,0,0,0,0,0c0,0,0,0,0,0v0v0c0,0,0,0,0-0.1c0,0,0,0,0,0c0,0,0,0,0,0v0
	c0-0.1,0.1-0.2,0.2-0.4v0c0,0,0,0,0,0c0,0,0,0,0,0v0l0,0l0,0l0,0l0,0l0,0l0,0c0.1-0.1,0.2-0.2,0.4-0.2h0c0,0,0,0,0.1,0
	c0.1,0,0.2-0.1,0.2-0.1c0.1,0,0.1,0,0.2,0h0h0.1h0c0.1,0,0.2,0,0.2,0c0.1,0,0.1,0,0.2,0.1c0,0,0,0,0,0h0c0.1,0.1,0.2,0.1,0.4,0.2
	c0,0,0,0,0.1,0l0,0l0,0l0,0l0,0l0,0l0,0l0,0v0c0.1,0.1,0.2,0.2,0.2,0.4v0c0,0,0,0,0,0s0,0,0,0c0,0.1,0,0.2,0,0.2L31.3,108.1z
	 M26.5,96.4l-1,6h2L26.5,96.4z"/>
<path style="fill:#373839;" d="M43.5,107.8c0.2,0.4,0.2,0.8,0,1.1c-0.2,0.4-0.4,0.7-0.8,0.8c-0.2,0.1-0.4,0.1-0.6,0.1
	c-0.3,0-0.5-0.1-0.8-0.2s-0.4-0.4-0.6-0.7l-2.8-6.6h-1.5v6c0,0.4-0.1,0.8-0.4,1.1c-0.3,0.3-0.6,0.4-1.1,0.4c-0.4,0-0.8-0.1-1.1-0.4
	c-0.3-0.3-0.4-0.6-0.4-1.1v-17c0-0.4,0.1-0.8,0.4-1.1c0.3-0.3,0.6-0.4,1.1-0.4h3.6c0.6,0,1.2,0.2,1.8,0.5s1.1,0.9,1.5,1.5
	c0.8,1.2,1.1,2.8,1.1,4.3c0,0.7-0.1,1.4-0.3,2.1c-0.2,0.7-0.5,1.3-0.8,1.9c-0.2,0.2-0.3,0.5-0.5,0.7c-0.2,0.2-0.4,0.4-0.5,0.6
	L43.5,107.8z M38.6,99.4c0.1,0,0.2-0.1,0.3-0.2s0.3-0.3,0.5-0.6c0.2-0.3,0.4-0.7,0.5-1.1c0.1-0.4,0.2-0.8,0.2-1.3
	c0-0.4-0.1-1.1-0.2-1.5c-0.1-0.4-0.3-0.8-0.5-1.1c-0.2-0.2-0.3-0.4-0.5-0.5s-0.3-0.2-0.3-0.2h-2.1v6.5H38.6z"/>
<path style="fill:#ff6860;" d="M75.4,92c0.4,0.6,0.6,1.2,0.8,1.9c0.2,0.7,0.3,1.6,0.3,2.4s-0.1,1.4-0.3,2.1s-0.5,1.3-0.8,1.9
	c-0.4,0.7-0.9,1.2-1.5,1.5c-0.6,0.4-1.2,0.6-1.8,0.6H70v6c0,0.4-0.1,0.8-0.4,1.1c-0.3,0.3-0.6,0.4-1.1,0.4c-0.4,0-0.8-0.1-1.1-0.4
	c-0.3-0.3-0.4-0.6-0.4-1.1v-17c0-0.3,0.1-0.5,0.2-0.8s0.3-0.4,0.5-0.5c0.2-0.1,0.5-0.2,0.8-0.2h3.6c0.6,0,1.2,0.2,1.8,0.5
	C74.5,90.8,75,91.4,75.4,92z M72.9,98.7c0.2-0.3,0.4-0.7,0.5-1.1c0.1-0.4,0.2-0.8,0.2-1.3s-0.1-1.1-0.2-1.5
	c-0.1-0.4-0.3-0.8-0.5-1.1c-0.2-0.2-0.3-0.4-0.5-0.5c-0.1-0.1-0.3-0.2-0.3-0.2H70v6.5h2.1c0.1,0,0.2-0.1,0.3-0.2
	C72.6,99.2,72.7,99,72.9,98.7z"/>
<path style="fill:#ff6860;" d="M65,108.1c0.1,0.4,0,0.8-0.2,1.1s-0.5,0.6-1,0.6c-0.1,0-0.2,0-0.3,0c-0.3,0-0.7-0.1-0.9-0.3
	c-0.3-0.2-0.5-0.5-0.5-0.9l-0.5-2.5h-2.7l-0.5,2.5c-0.1,0.4-0.2,0.6-0.5,0.9c-0.3,0.2-0.6,0.3-0.9,0.3c-0.1,0-0.2,0-0.3,0
	c-0.4-0.1-0.7-0.3-1-0.6c-0.2-0.3-0.3-0.7-0.2-1.1l3.3-17v0v0c0,0,0,0,0,0c0,0,0,0,0,0v0v0c0,0,0,0,0-0.1c0,0,0,0,0,0c0,0,0,0,0,0v0
	c0-0.1,0.1-0.2,0.2-0.4v0c0,0,0,0,0,0c0,0,0,0,0,0v0l0,0l0,0l0,0l0,0l0,0l0,0c0.1-0.1,0.2-0.2,0.4-0.2h0c0,0,0,0,0.1,0
	c0.1,0,0.2-0.1,0.2-0.1c0.1,0,0.1,0,0.2,0h0h0.1h0c0.1,0,0.2,0,0.2,0c0.1,0,0.1,0,0.2,0.1c0,0,0,0,0,0h0c0.1,0.1,0.2,0.1,0.4,0.2
	c0,0,0,0,0.1,0l0,0l0,0l0,0l0,0l0,0l0,0l0,0v0c0.1,0.1,0.2,0.2,0.2,0.4v0c0,0,0,0,0,0s0,0,0,0c0,0.1,0,0.2,0,0.2L65,108.1z
	 M60.1,96.4l-1,6h2L60.1,96.4z"/>
<path style="fill:#373839;" d="M87.8,108.4c0.2,0,0.4,0.1,0.5,0.2c0.1,0.1,0.2,0.3,0.2,0.5c0,0.2-0.1,0.4-0.2,0.5
	c-0.1,0.1-0.3,0.2-0.5,0.2c-0.2,0-0.4-0.1-0.5-0.2c-0.1-0.1-0.2-0.3-0.2-0.5c0-0.2,0.1-0.4,0.2-0.5
	C87.4,108.5,87.5,108.4,87.8,108.4z"/>
<path style="fill:#373839;" d="M94.2,105.4c0.2,0.2,0.3,0.5,0.4,0.8c0.1,0.3,0.3,0.7,0.3,1c0,0.3-0.1,0.7-0.2,1
	c-0.1,0.3-0.2,0.6-0.4,0.8c-0.2,0.3-0.4,0.5-0.7,0.7c-0.3,0.2-0.5,0.2-0.8,0.2h-1.6h0c-0.2,0-0.3-0.1-0.5-0.2
	c-0.1-0.1-0.3-0.3-0.3-0.5v-7.7c0-0.2,0.1-0.2,0.3-0.4c0.1-0.1,0.3-0.2,0.5-0.2h0h1.4c0.3,0,0.5,0.1,0.8,0.2
	c0.2,0.1,0.4,0.3,0.6,0.6c0.2,0.2,0.3,0.5,0.3,0.7c0.1,0.3,0.2,0.5,0.2,0.8c0,0.3-0.1,0.6-0.2,0.9c-0.1,0.3-0.2,0.5-0.3,0.7
	C94,105.1,94.1,105.2,94.2,105.4z M91.7,104.5h0.8c0,0,0.1,0,0.1-0.1c0,0,0.1-0.1,0.2-0.2c0.1-0.1,0.1-0.2,0.2-0.4
	c0-0.2,0.1-0.3,0.1-0.5c0-0.2,0-0.3-0.1-0.5c0-0.1-0.1-0.3-0.2-0.4c-0.1-0.1-0.1-0.1-0.2-0.2c0,0-0.1-0.1-0.1-0.1h-0.8V104.5z
	 M92.7,108.6c0.1,0,0.1,0,0.2-0.1c0.1-0.1,0.2-0.1,0.2-0.3c0.1-0.1,0.1-0.3,0.2-0.4c0-0.2,0-0.4,0-0.6c0-0.2,0-0.4-0.1-0.5
	c0-0.2-0.1-0.3-0.2-0.4c-0.1-0.1-0.1-0.2-0.2-0.3c-0.1-0.1-0.1-0.1-0.2-0.1h-0.9l0,2.7H92.7z"/>
<path style="fill:#373839;" d="M100,107.9c0,0.1,0,0.2,0,0.4c0,0.2-0.1,0.3-0.2,0.5c-0.1,0.2-0.2,0.4-0.3,0.5
	c-0.1,0.1-0.3,0.3-0.6,0.4c-0.3,0.1-0.6,0.2-1,0.2c-0.4,0-0.7-0.1-1-0.2c-0.2-0.1-0.4-0.3-0.6-0.4c-0.2-0.2-0.3-0.3-0.3-0.5
	c-0.1-0.2-0.1-0.4-0.2-0.5c0-0.2-0.1-0.3-0.1-0.4c0-0.1,0-0.2,0-0.3v-4.3c0-0.5,0.1-0.8,0.2-1.1c0.2-0.3,0.3-0.5,0.5-0.6
	c0.4-0.4,0.8-0.5,1.4-0.5c0.5,0,1,0.2,1.4,0.5c0.2,0.2,0.3,0.4,0.5,0.6c0.2,0.3,0.2,0.6,0.2,1.1c0,0.2-0.1,0.4-0.2,0.5
	c-0.1,0.1-0.3,0.2-0.5,0.2c-0.2,0-0.3-0.1-0.5-0.2c-0.1-0.1-0.2-0.3-0.2-0.5c0-0.2,0-0.3-0.1-0.5c0-0.1-0.1-0.2-0.2-0.3
	c-0.1-0.1-0.2-0.1-0.2-0.1c-0.1,0-0.2,0-0.3,0c-0.1,0-0.1,0-0.2,0c-0.1,0-0.2,0.1-0.2,0.1s-0.1,0.2-0.2,0.3
	c-0.1,0.1-0.2,0.3-0.2,0.5c0,0,0,4.6,0,4.7c0,0.1,0.3,0.4,0.3,0.5c0,0,0.1,0.1,0.1,0.1c0.1,0,0.2,0.1,0.4,0.1c0.2,0,0.3,0,0.4-0.1
	c0.1-0.1,0.1-0.1,0.2-0.1c0.1-0.1,0.1-0.1,0.1-0.2c0-0.1,0.1-0.1,0.1-0.2c0-0.1,0-0.1,0-0.2c0-0.1,0-0.1,0-0.1v0l0-1.1h-0.4
	c-0.2,0-0.3-0.1-0.5-0.3c-0.1-0.1-0.2-0.3-0.2-0.5c0-0.2,0.1-0.3,0.2-0.5c0.1-0.1,0.3-0.1,0.5-0.1h1.8v2.5
	C100,107.7,100,107.8,100,107.9z"/>
<path style="fill:#ff6860;" d="M87.4,92c0.4,0.6,0.6,1.2,0.8,1.9c0.2,0.7,0.3,1.6,0.3,2.4s-0.1,1.4-0.3,2.1s-0.5,1.3-0.8,1.9
	c-0.4,0.7-0.9,1.2-1.5,1.5c-0.6,0.4-1.2,0.6-1.8,0.6H82v6c0,0.4-0.1,0.8-0.4,1.1c-0.3,0.3-0.6,0.4-1.1,0.4c-0.4,0-0.8-0.1-1.1-0.4
	c-0.3-0.3-0.4-0.6-0.4-1.1v-17c0-0.3,0.1-0.5,0.2-0.8s0.3-0.4,0.5-0.5c0.2-0.1,0.5-0.2,0.8-0.2h3.6c0.6,0,1.2,0.2,1.8,0.5
	C86.5,90.8,87,91.4,87.4,92z M84.9,98.7c0.2-0.3,0.4-0.7,0.5-1.1c0.1-0.4,0.2-0.8,0.2-1.3s-0.1-1.1-0.2-1.5
	c-0.1-0.4-0.3-0.8-0.5-1.1c-0.2-0.2-0.3-0.4-0.5-0.5c-0.1-0.1-0.3-0.2-0.3-0.2H82v6.5h2.1c0.1,0,0.2-0.1,0.3-0.2
	C84.6,99.2,84.7,99,84.9,98.7z"/>
<path style="fill:#373839;" d="M55.6,90.4c0.3,0.3,0.4,0.6,0.4,1.1c0,0.4-0.1,0.8-0.4,1.1s-0.6,0.4-1.1,0.4H52v15.5
	c0,0.4-0.2,0.7-0.5,1c-0.3,0.3-0.6,0.5-1,0.5c-0.4,0-0.7-0.2-1-0.5c-0.3-0.3-0.5-0.6-0.5-1V92.9h-2.5c-0.4,0-0.8-0.1-1.1-0.4
	c-0.3-0.3-0.4-0.6-0.4-1.1c0-0.4,0.1-0.8,0.4-1.1c0.3-0.3,0.6-0.4,1.1-0.4h8C54.9,89.9,55.3,90.1,55.6,90.4z"/>
</svg>
